# xmcd
#
# Track frame offsets:
#	183
#	18093
#	46115
#	65970
#
# Disc length: 1113 seconds
#
# Revision: 3
# Processed by: cddbd v1.4PL0 Copyright (c) Steve Scherf et al.
# Submitted via: EasyCDDAExtractor 5.0.7
#
DISCID=2c045704
DTITLE=Jon Secada - I'm Free
DYEAR=1994
DGENRE=Eurodance
TTITLE0=I'm Free(I'm Free UK CD Single Version)
TTITLE1=I'm Free(Club Extended Radio Final-121 BPM)
TTITLE2=Time Heals(I'm Free UK CD Single Version)
TTITLE3=I'm Free(Spanglish Version)
EXTD=
EXTT0=
EXTT1=
EXTT2=
EXTT3=
PLAYORDER=
